<svg width="30" height="31" viewBox="0 0 30 31" fill="none" xmlns="http://www.w3.org/2000/svg">
<path d="M9.14928 13.1127L14.96 7.30199L20.7735 13.1152L24.1545 9.73427L14.96 0.540039L5.76858 9.73151L9.14943 13.1125L9.14928 13.1127ZM0 15.5001L3.38108 12.1185L6.76192 15.4994L3.38085 18.8805L0 15.5001ZM9.14928 17.8879L14.96 23.6982L20.7733 17.8851L24.1561 21.2643L24.1545 21.2661L14.96 30.4602L5.76858 21.2687L5.76379 21.264L9.14966 17.8875L9.14928 17.8879ZM23.1581 15.5016L26.5392 12.1204L29.92 15.5013L26.5391 18.8824L23.1581 15.5016Z" fill="#F3BA2F"/>
<path d="M18.389 15.4991H18.3904L14.9599 12.0684L12.4243 14.6033L12.133 14.8947L11.5322 15.4957L11.5273 15.5003L11.5322 15.5052L14.9599 18.9335L18.3906 15.5027L18.3923 15.5008L18.3892 15.4991" fill="#F3BA2F"/>
</svg>
